<?xml version="1.0" encoding="utf-8"?>
<!DOCTYPE svg PUBLIC "-//W3C//DTD SVG 20010904//EN" "http://www.w3.org/TR/2001/REC-SVG-20010904/DTD/svg10.dtd">
<svg version="1.0" xmlns="http://www.w3.org/2000/svg" width="50pt" height="50pt" viewBox="0 0 50 50" style="" preserveAspectRatio="xMidYMid meet">
<g fill="#191B27FF" stroke="#191B27FF">
<path d="M 14.264 7.558 C 5.345 12.903 2.193 24.570 6.990 34.480 C 13.703 48.346 34.646 48.992 42.509 35.575 C 46.415 28.910 45.904 27.809 40.250 30.708 C 31.960 34.961 23.072 31.911 18.953 23.402 C 16.393 18.115 16.810 12.480 20.103 7.855 C 22.012 5.175 22.025 5.001 20.318 5.009 C 19.318 5.015 16.594 6.161 14.264 7.558 M 16.348 29.408 C 18.542 32.757 21.970 34.941 28.328 37.040 L 33.500 38.747 29.250 39.912 C 17.718 43.073 6.925 32.291 10.084 20.766 L 11.253 16.500 12.960 21.672 C 13.899 24.516 15.423 27.997 16.348 29.408 "/></g>
</svg>
