<?xml version="1.0" encoding="utf-8"?>
<!DOCTYPE svg PUBLIC "-//W3C//DTD SVG 20010904//EN" "http://www.w3.org/TR/2001/REC-SVG-20010904/DTD/svg10.dtd">
<svg version="1.0" xmlns="http://www.w3.org/2000/svg" width="50pt" height="50pt" viewBox="0 0 50 50" style="" preserveAspectRatio="xMidYMid meet">
<g fill="#191B27FF" stroke="#191B27FF">
<path d="M 12.667 13.667 C 11.109 15.224 12.285 17.721 16.678 22.181 L 21.356 26.930 16.045 32.546 C 11.244 37.622 10.883 38.311 12.286 39.714 C 13.689 41.117 14.375 40.759 19.419 35.988 L 25.000 30.710 30.434 35.849 C 33.985 39.207 36.410 40.780 37.434 40.387 C 39.987 39.407 39.287 37.853 33.784 32.281 L 28.568 27.000 33.922 21.579 C 37.488 17.968 39.073 15.632 38.669 14.579 C 37.694 12.040 36.213 12.686 30.404 18.180 L 24.927 23.359 19.682 18.180 C 14.278 12.843 13.799 12.535 12.667 13.667 "/></g>
</svg>
