<?xml version="1.0" encoding="utf-8"?>
<!DOCTYPE svg PUBLIC "-//W3C//DTD SVG 20010904//EN" "http://www.w3.org/TR/2001/REC-SVG-20010904/DTD/svg10.dtd">
<svg version="1.0" xmlns="http://www.w3.org/2000/svg" width="50pt" height="50pt" viewBox="0 0 50 50" style="" preserveAspectRatio="xMidYMid meet">
<g fill="#191B27FF" stroke="#191B27FF">
<path d="M 16.400 16.400 C 11.439 21.361 11.439 28.639 16.400 33.600 C 19.395 36.595 20.420 37.000 25.000 37.000 C 29.580 37.000 30.605 36.595 33.600 33.600 C 36.595 30.605 37.000 29.580 37.000 25.000 C 37.000 17.457 32.543 13.000 25.000 13.000 C 20.420 13.000 19.395 13.405 16.400 16.400 "/></g>
<g fill="#191B27FF" stroke="#191B27FF">
<path d="M 36.461 37.063 C 36.100 37.648 36.591 38.996 37.554 40.059 C 38.904 41.552 39.617 41.733 40.677 40.853 C 41.831 39.895 41.782 39.416 40.370 37.857 C 38.460 35.745 37.407 35.532 36.461 37.063 "/></g>
<g fill="#191B27FF" stroke="#191B27FF">
<path d="M 9.630 37.857 C 8.218 39.416 8.169 39.895 9.323 40.853 C 10.383 41.733 11.096 41.552 12.446 40.059 C 13.409 38.996 13.900 37.648 13.539 37.063 C 12.593 35.532 11.540 35.745 9.630 37.857 "/></g>
<g fill="#191B27FF" stroke="#191B27FF">
<path d="M 37.507 9.993 C 36.103 11.544 35.930 12.330 36.800 13.200 C 37.670 14.070 38.456 13.897 40.007 12.493 C 41.731 10.934 41.845 10.416 40.714 9.286 C 39.584 8.155 39.066 8.269 37.507 9.993 "/></g>
<g fill="#191B27FF" stroke="#191B27FF">
<path d="M 9.171 9.294 C 7.540 11.260 11.432 14.968 13.235 13.165 C 14.151 12.249 13.956 11.512 12.379 9.934 C 10.654 8.209 10.154 8.109 9.171 9.294 "/></g>
<g fill="#191B27FF" stroke="#191B27FF">
<path d="M 24.000 44.500 C 24.000 45.875 24.450 47.000 25.000 47.000 C 25.550 47.000 26.000 45.875 26.000 44.500 C 26.000 43.125 25.550 42.000 25.000 42.000 C 24.450 42.000 24.000 43.125 24.000 44.500 "/></g>
<g fill="#191B27FF" stroke="#191B27FF">
<path d="M 42.000 25.000 C 42.000 25.550 43.125 26.000 44.500 26.000 C 45.875 26.000 47.000 25.550 47.000 25.000 C 47.000 24.450 45.875 24.000 44.500 24.000 C 43.125 24.000 42.000 24.450 42.000 25.000 "/></g>
<g fill="#191B27FF" stroke="#191B27FF">
<path d="M 3.000 25.000 C 3.000 25.550 4.125 26.000 5.500 26.000 C 6.875 26.000 8.000 25.550 8.000 25.000 C 8.000 24.450 6.875 24.000 5.500 24.000 C 4.125 24.000 3.000 24.450 3.000 25.000 "/></g>
<g fill="#191B27FF" stroke="#191B27FF">
<path d="M 24.000 5.500 C 24.000 6.875 24.450 8.000 25.000 8.000 C 25.550 8.000 26.000 6.875 26.000 5.500 C 26.000 4.125 25.550 3.000 25.000 3.000 C 24.450 3.000 24.000 4.125 24.000 5.500 "/></g>
</svg>
